{
  "accessors": [
    {
      "bufferView": 3,
      "componentType": 5126,
      "count": 773,
      "max": [
        698.264892578125,
        133.8876953125,
        405.98382568359375
      ],
      "min": [
        -698.264892578125,
        -73.35342407226563,
        -628.5933227539063
      ],
      "type": "VEC3"
    },
    {
      "bufferView": 3,
      "byteOffset": 9276,
      "componentType": 5126,
      "count": 773,
      "max": [
        0.9999850988388062,
        1.0,
        0.9958807826042175
      ],
      "min": [
        -0.9999851584434509,
        -1.0,
        -0.9938448667526245
      ],
      "type": "VEC3"
    },
    {
      "bufferView": 4,
      "componentType": 5126,
      "count": 773,
      "max": [
        1.0,
        1.0,
        1.0,
        1.0
      ],
      "min": [
        0.6941176652908325,
        0.6431372761726379,
        0.2235294133424759,
        1.0
      ],
      "type": "VEC4"
    },
    {
      "bufferView": 2,
      "componentType": 5126,
      "count": 773,
      "max": [
        1.0,
        0.8546880483627319
      ],
      "min": [
        0.0,
        0.0
      ],
      "type": "VEC2"
    },
    {
      "bufferView": 1,
      "componentType": 5125,
      "count": 3300,
      "type": "SCALAR"
    },
    {
      "bufferView": 5,
      "componentType": 5126,
      "count": 12,
      "max": [
        1.0,
        0.009988364763557911,
        1.857752351952513e-08,
        0.0,
        2.3362907164425906e-09,
        1.0,
        0.009999999776482582,
        0.0,
        0.009988364763557911,
        0.009999999776482582,
        1.0,
        0.0,
        0.008576016873121262,
        0.0,
        0.05715851113200188,
        1.0
      ],
      "min": [
        -0.0005137968109920621,
        -0.009988364763557911,
        -0.009999998845160007,
        0.0,
        -0.009999999776482582,
        -1.03316044608448e-09,
        -4.3711381736422084e-10,
        0.0,
        -0.009988364763557911,
        -0.009999999776482582,
        -1.4768859468716755e-09,
        0.0,
        -0.008576016873121262,
        -3.107497215270996,
        -1.4869301345754593e-08,
        1.0
      ],
      "type": "MAT4"
    },
    {
      "bufferView": 0,
      "componentType": 5123,
      "count": 773,
      "type": "VEC4"
    },
    {
      "bufferView": 4,
      "byteOffset": 12368,
      "componentType": 5126,
      "count": 773,
      "max": [
        1.0,
        0.47365903854370117,
        0.14228612184524536,
        0.0
      ],
      "min": [
        0.46332627534866333,
        0.0,
        0.0,
        0.0
      ],
      "type": "VEC4"
    },
    {
      "bufferView": 6,
      "componentType": 5126,
      "count": 598,
      "max": [
        12.5
      ],
      "min": [
        0.0416666679084301
      ],
      "type": "SCALAR"
    },
    {
      "bufferView": 8,
      "componentType": 5126,
      "count": 598,
      "max": [
        0.7071067094802856,
        -0.00025008225929923356,
        0.7071065902709961,
        0.24700507521629333
      ],
      "min": [
        -0.7071065902709961,
        -0.24700525403022766,
        -0.7071067094802856,
        0.0002498911926522851
      ],
      "type": "VEC4"
    },
    {
      "bufferView": 6,
      "byteOffset": 2392,
      "componentType": 5126,
      "count": 496,
      "max": [
        12.0
      ],
      "min": [
        0.0416666679084301
      ],
      "type": "SCALAR"
    },
    {
      "bufferView": 7,
      "componentType": 5126,
      "count": 496,
      "max": [
        1.1407078504562378,
        -0.0023154504597187042,
        0.57042396068573
      ],
      "min": [
        0.9539775848388672,
        -0.043256353586912155,
        0.05342685431241989
      ],
      "type": "VEC3"
    },
    {
      "bufferView": 6,
      "byteOffset": 4376,
      "componentType": 5126,
      "count": 574,
      "max": [
        12.0
      ],
      "min": [
        0.0416666679084301
      ],
      "type": "SCALAR"
    },
    {
      "bufferView": 8,
      "byteOffset": 9568,
      "componentType": 5126,
      "count": 574,
      "max": [
        0.22303837537765503,
        0.36320316791534424,
        -0.6533525586128235,
        0.6778751611709595
      ],
      "min": [
        -0.391486793756485,
        -0.20055533945560455,
        -0.7396749258041382,
        0.5365949273109436
      ],
      "type": "VEC4"
    },
    {
      "bufferView": 6,
      "byteOffset": 6672,
      "componentType": 5126,
      "count": 496,
      "max": [
        12.0
      ],
      "min": [
        0.0416666679084301
      ],
      "type": "SCALAR"
    },
    {
      "bufferView": 7,
      "byteOffset": 5952,
      "componentType": 5126,
      "count": 496,
      "max": [
        -0.9539775848388672,
        -0.0023154504597187042,
        0.57042396068573
      ],
      "min": [
        -1.1407078504562378,
        -0.043256353586912155,
        0.05342685431241989
      ],
      "type": "VEC3"
    },
    {
      "bufferView": 6,
      "byteOffset": 8656,
      "componentType": 5126,
      "count": 574,
      "max": [
        12.0
      ],
      "min": [
        0.0416666679084301
      ],
      "type": "SCALAR"
    },
    {
      "bufferView": 8,
      "byteOffset": 18752,
      "componentType": 5126,
      "count": 574,
      "max": [
        0.22303839027881622,
        0.20055536925792694,
        0.7396749258041382,
        0.6778751611709595
      ],
      "min": [
        -0.391486793756485,
        -0.36320313811302185,
        0.6533525586128235,
        0.5365949869155884
      ],
      "type": "VEC4"
    },
    {
      "bufferView": 6,
      "byteOffset": 10952,
      "componentType": 5126,
      "count": 595,
      "max": [
        12.5
      ],
      "min": [
        0.0416666679084301
      ],
      "type": "SCALAR"
    },
    {
      "bufferView": 7,
      "byteOffset": 11904,
      "componentType": 5126,
      "count": 595,
      "max": [
        0.0,
        -1.4279202222824097,
        -6.25810230303614e-08
      ],
      "min": [
        0.0,
        -3.467925786972046,
        -6.25810230303614e-08
      ],
      "type": "VEC3"
    },
    {
      "bufferView": 6,
      "byteOffset": 13332,
      "componentType": 5126,
      "count": 598,
      "max": [
        12.5
      ],
      "min": [
        0.0416666679084301
      ],
      "type": "SCALAR"
    },
    {
      "bufferView": 7,
      "byteOffset": 19044,
      "componentType": 5126,
      "count": 598,
      "max": [
        3.031430721282959,
        -2.1614062786102295,
        -0.15755388140678406
      ],
      "min": [
        1.8339817523956299,
        -2.767005681991577,
        -0.15755388140678406
      ],
      "type": "VEC3"
    },
    {
      "bufferView": 6,
      "byteOffset": 15724,
      "componentType": 5126,
      "count": 598,
      "max": [
        12.5
      ],
      "min": [
        0.0416666679084301
      ],
      "type": "SCALAR"
    },
    {
      "bufferView": 8,
      "byteOffset": 27936,
      "componentType": 5126,
      "count": 598,
      "max": [
        0.7126709222793579,
        0.7127662301063538,
        0.6787093281745911,
        0.701532781124115
      ],
      "min": [
        -0.6785293817520142,
        -0.5130516886711121,
        -0.7016249299049377,
        -0.47800442576408386
      ],
      "type": "VEC4"
    },
    {
      "bufferView": 6,
      "byteOffset": 18116,
      "componentType": 5126,
      "count": 598,
      "max": [
        12.5
      ],
      "min": [
        0.0416666679084301
      ],
      "type": "SCALAR"
    },
    {
      "bufferView": 7,
      "byteOffset": 26220,
      "componentType": 5126,
      "count": 598,
      "max": [
        -1.8339817523956299,
        -2.1614062786102295,
        -0.15755388140678406
      ],
      "min": [
        -3.031430721282959,
        -2.767005681991577,
        -0.15755388140678406
      ],
      "type": "VEC3"
    },
    {
      "bufferView": 6,
      "byteOffset": 20508,
      "componentType": 5126,
      "count": 598,
      "max": [
        12.5
      ],
      "min": [
        0.0416666679084301
      ],
      "type": "SCALAR"
    },
    {
      "bufferView": 8,
      "byteOffset": 37504,
      "componentType": 5126,
      "count": 598,
      "max": [
        0.7126472592353821,
        0.5336915850639343,
        0.7016600370407104,
        0.7015581130981445
      ],
      "min": [
        -0.49415266513824463,
        -0.7126868367195129,
        -0.513269305229187,
        -0.49948078393936157
      ],
      "type": "VEC4"
    }
  ],
  "animations": [
    {
      "channels": [
        {
          "sampler": 0,
          "target": {
            "node": 11,
            "path": "rotation"
          }
        },
        {
          "sampler": 1,
          "target": {
            "node": 13,
            "path": "translation"
          }
        },
        {
          "sampler": 2,
          "target": {
            "node": 13,
            "path": "rotation"
          }
        },
        {
          "sampler": 3,
          "target": {
            "node": 15,
            "path": "translation"
          }
        },
        {
          "sampler": 4,
          "target": {
            "node": 15,
            "path": "rotation"
          }
        },
        {
          "sampler": 5,
          "target": {
            "node": 10,
            "path": "translation"
          }
        },
        {
          "sampler": 6,
          "target": {
            "node": 17,
            "path": "translation"
          }
        },
        {
          "sampler": 7,
          "target": {
            "node": 17,
            "path": "rotation"
          }
        },
        {
          "sampler": 8,
          "target": {
            "node": 19,
            "path": "translation"
          }
        },
        {
          "sampler": 9,
          "target": {
            "node": 19,
            "path": "rotation"
          }
        }
      ],
      "name": "Scene",
      "samplers": [
        {
          "input": 8,
          "interpolation": "LINEAR",
          "output": 9
        },
        {
          "input": 10,
          "interpolation": "LINEAR",
          "output": 11
        },
        {
          "input": 12,
          "interpolation": "LINEAR",
          "output": 13
        },
        {
          "input": 14,
          "interpolation": "LINEAR",
          "output": 15
        },
        {
          "input": 16,
          "interpolation": "LINEAR",
          "output": 17
        },
        {
          "input": 18,
          "interpolation": "LINEAR",
          "output": 19
        },
        {
          "input": 20,
          "interpolation": "LINEAR",
          "output": 21
        },
        {
          "input": 22,
          "interpolation": "LINEAR",
          "output": 23
        },
        {
          "input": 24,
          "interpolation": "LINEAR",
          "output": 25
        },
        {
          "input": 26,
          "interpolation": "LINEAR",
          "output": 27
        }
      ]
    }
  ],
  "asset": {
    "extras": {
      "author": "Bim Marketing Solutions (https://sketchfab.com/BIM_Marketing_Solutions)",
      "license": "CC-BY-4.0 (http://creativecommons.org/licenses/by/4.0/)",
      "source": "https://sketchfab.com/3d-models/duck-57401bd1c5874af3af8bec9f59f3427a",
      "title": "Duck"
    },
    "generator": "Sketchfab-14.84.0",
    "version": "2.0"
  },
  "bufferViews": [
    {
      "buffer": 0,
      "byteLength": 6184,
      "byteStride": 8,
      "name": "shortBufferViews",
      "target": 34962
    },
    {
      "buffer": 0,
      "byteLength": 13200,
      "byteOffset": 6184,
      "name": "floatBufferViews",
      "target": 34963
    },
    {
      "buffer": 0,
      "byteLength": 6184,
      "byteOffset": 19384,
      "byteStride": 8,
      "name": "floatBufferViews",
      "target": 34962
    },
    {
      "buffer": 0,
      "byteLength": 18552,
      "byteOffset": 25568,
      "byteStride": 12,
      "name": "floatBufferViews",
      "target": 34962
    },
    {
      "buffer": 0,
      "byteLength": 24736,
      "byteOffset": 44120,
      "byteStride": 16,
      "name": "floatBufferViews",
      "target": 34962
    },
    {
      "buffer": 0,
      "byteLength": 768,
      "byteOffset": 68856,
      "name": "floatBufferViews"
    },
    {
      "buffer": 0,
      "byteLength": 22900,
      "byteOffset": 69624,
      "name": "floatBufferViews"
    },
    {
      "buffer": 0,
      "byteLength": 33396,
      "byteOffset": 92524,
      "byteStride": 12,
      "name": "floatBufferViews"
    },
    {
      "buffer": 0,
      "byteLength": 47072,
      "byteOffset": 125920,
      "byteStride": 16,
      "name": "floatBufferViews"
    }
  ],
  "buffers": [
    {
      "byteLength": 172992,
      "uri": "duck.bin"
    }
  ],
  "images": [
    {
      "uri": "textures/Material.001_baseColor.png"
    }
  ],
  "materials": [
    {
      "doubleSided": true,
      "name": "Material.001",
      "pbrMetallicRoughness": {
        "baseColorTexture": {
          "index": 0
        },
        "metallicFactor": 0.0
      }
    }
  ],
  "meshes": [
    {
      "name": "Cube_Material.001_0",
      "primitives": [
        {
          "attributes": {
            "COLOR_0": 2,
            "JOINTS_0": 6,
            "NORMAL": 1,
            "POSITION": 0,
            "TEXCOORD_0": 3,
            "WEIGHTS_0": 7
          },
          "indices": 4,
          "material": 0,
          "mode": 4
        }
      ]
    }
  ],
  "nodes": [
    {
      "children": [
        1
      ],
      "matrix": [
        1.0,
        0.0,
        0.0,
        0.0,
        0.0,
        2.220446049250313e-16,
        -1.0,
        0.0,
        0.0,
        1.0,
        2.220446049250313e-16,
        0.0,
        0.0,
        0.0,
        0.0,
        1.0
      ],
      "name": "Sketchfab_model"
    },
    {
      "children": [
        2
      ],
      "matrix": [
        0.009999999776482582,
        0.0,
        0.0,
        0.0,
        0.0,
        0.0,
        0.009999999776482582,
        0.0,
        0.0,
        -0.009999999776482582,
        0.0,
        0.0,
        0.0,
        0.0,
        0.0,
        1.0
      ],
      "name": "4af28504bae941399febac796ace037c.fbx"
    },
    {
      "children": [
        3
      ],
      "name": "Object_2"
    },
    {
      "children": [
        4,
        5
      ],
      "name": "RootNode"
    },
    {
      "name": "Cube",
      "rotation": [
        1.7523978772124521e-15,
        0.0,
        0.0,
        1.0
      ],
      "scale": [
        0.5068360567092896,
        0.5068360567092896,
        0.5068360567092896
      ]
    },
    {
      "children": [
        6
      ],
      "name": "Armature",
      "rotation": [
        1.0,
        0.0,
        0.0,
        7.549790126404332e-08
      ],
      "scale": [
        50.68361282348633,
        50.68361282348633,
        50.68361282348633
      ]
    },
    {
      "children": [
        7,
        9,
        8
      ],
      "name": "Object_6"
    },
    {
      "children": [
        10,
        17,
        19
      ],
      "name": "_rootJoint"
    },
    {
      "matrix": [
        0.5068360697034002,
        0.0,
        0.0,
        0.0,
        0.0,
        0.5068360406122497,
        -2.1838614257089794e-15,
        0.0,
        0.0,
        2.1838614257089794e-15,
        0.5068360406122497,
        0.0,
        0.0,
        0.0,
        0.0,
        1.0
      ],
      "name": "Object_8"
    },
    {
      "mesh": 0,
      "name": "Object_9",
      "skin": 0
    },
    {
      "children": [
        11,
        13,
        15
      ],
      "name": "Root_00",
      "rotation": [
        0.7344872355461121,
        0.0,
        0.0,
        0.6786225438117981
      ],
      "scale": [
        1.0,
        0.9999999403953552,
        0.9999999403953552
      ],
      "translation": [
        0.0,
        -1.4316869974136353,
        -6.25810230303614e-08
      ]
    },
    {
      "children": [
        12
      ],
      "name": "Tail_01",
      "rotation": [
        -0.6743672490119934,
        -0.21267037093639374,
        0.674367368221283,
        0.21267054975032806
      ],
      "translation": [
        0.05715828016400337,
        -1.5994765758514404,
        0.04941566288471222
      ]
    },
    {
      "name": "Tail_end_06",
      "rotation": [
        -5.293955920339377e-23,
        3.3087224502121107e-23,
        2.7755575615628914e-17,
        1.0
      ],
      "translation": [
        -4.440892098500626e-16,
        2.1443920135498047,
        -6.938893903907228e-18
      ]
    },
    {
      "children": [
        14
      ],
      "name": "Wing1.r_02",
      "rotation": [
        0.22291874885559082,
        -0.19991303980350494,
        -0.6868735551834106,
        0.6622285842895508
      ],
      "scale": [
        1.0000001192092896,
        0.9999999403953552,
        1.0
      ],
      "translation": [
        1.1393541097640991,
        -0.04295952990651131,
        0.057175152003765106
      ]
    },
    {
      "name": "Wing1.r_end_07",
      "rotation": [
        1.1275702593849246e-17,
        -6.938893903907228e-18,
        -6.938893903907228e-18,
        1.0
      ],
      "translation": [
        2.7755575615628914e-17,
        2.0247859954833984,
        0.0
      ]
    },
    {
      "children": [
        16
      ],
      "name": "Wing1.l_03",
      "rotation": [
        0.22291885316371918,
        0.1999131739139557,
        0.6868735551834106,
        0.662228524684906
      ],
      "scale": [
        1.0000001192092896,
        1.0,
        1.0000001192092896
      ],
      "translation": [
        -1.1393541097640991,
        -0.04295952990651131,
        0.057175152003765106
      ]
    },
    {
      "name": "Wing1.l_end_08",
      "rotation": [
        2.1250362580715887e-17,
        -1.3877787807814457e-17,
        -6.938893903907228e-18,
        1.0
      ],
      "translation": [
        -2.7755575615628914e-17,
        2.0247859954833984,
        3.3306690738754696e-16
      ]
    },
    {
      "children": [
        18
      ],
      "name": "Wing2.r_04",
      "rotation": [
        0.7082985639572144,
        -0.0780036449432373,
        -0.6921867728233337,
        -0.11448164284229279
      ],
      "scale": [
        1.0,
        0.9999999403953552,
        0.9999999403953552
      ],
      "translation": [
        2.8460543155670166,
        -2.6733856201171875,
        -0.15755388140678406
      ]
    },
    {
      "name": "Wing2.r_end_09",
      "rotation": [
        -2.1304572689340162e-17,
        -8.673617379884035e-19,
        3.469446951953614e-18,
        1.0
      ],
      "translation": [
        6.938893903907228e-17,
        3.3603601455688477,
        -4.440892098500626e-16
      ]
    },
    {
      "children": [
        20
      ],
      "name": "Wing2.l_05",
      "rotation": [
        0.7083100080490112,
        0.07790184020996094,
        0.6922026872634888,
        -0.11438393592834473
      ],
      "scale": [
        1.0,
        0.9999999403953552,
        0.9999998211860657
      ],
      "translation": [
        -2.8460543155670166,
        -2.6733856201171875,
        -0.15755388140678406
      ]
    },
    {
      "name": "Wing2.l_end_010",
      "rotation": [
        -2.3310346708438345e-17,
        2.6020852139652106e-18,
        6.065550850243004e-35,
        1.0
      ],
      "translation": [
        4.163336342344337e-17,
        3.3603601455688477,
        -4.440892098500626e-16
      ]
    }
  ],
  "samplers": [
    {
      "magFilter": 9729,
      "minFilter": 9987,
      "wrapS": 10497,
      "wrapT": 10497
    }
  ],
  "scene": 0,
  "scenes": [
    {
      "name": "Sketchfab_Scene",
      "nodes": [
        0
      ]
    }
  ],
  "skins": [
    {
      "inverseBindMatrices": 5,
      "joints": [
        7,
        10,
        11,
        12,
        13,
        14,
        15,
        16,
        17,
        18,
        19,
        20
      ],
      "skeleton": 7
    }
  ],
  "textures": [
    {
      "sampler": 0,
      "source": 0
    }
  ]
}
